<svg xmlns="http://www.w3.org/2000/svg" viewBox="0 0 512 512">
  <defs>
    <linearGradient id="bg" x1="56" y1="34" x2="456" y2="478" gradientUnits="userSpaceOnUse">
      <stop stop-color="#18131e"/>
      <stop offset="1" stop-color="#080a0f"/>
    </linearGradient>
    <linearGradient id="wheel" x1="116" y1="76" x2="397" y2="356" gradientUnits="userSpaceOnUse">
      <stop stop-color="#ff4656"/>
      <stop offset="0.52" stop-color="#ff5c79"/>
      <stop offset="1" stop-color="#9d73ff"/>
    </linearGradient>
    <filter id="glow" x="-30%" y="-30%" width="160%" height="160%">
      <feGaussianBlur stdDeviation="7" result="blur"/>
      <feMerge><feMergeNode in="blur"/><feMergeNode in="SourceGraphic"/></feMerge>
    </filter>
  </defs>

  <rect width="512" height="512" rx="112" fill="url(#bg)"/>
  <circle cx="256" cy="215" r="157" fill="#ff4656" fill-opacity=".07"/>

  <g stroke-linecap="round" stroke-linejoin="round">
    <path d="M226 257L148 428M286 257L364 428M130 428H382"
          fill="none" stroke="#f1edf5" stroke-opacity=".82" stroke-width="22"/>
    <path d="M256 215V75M256 215L355 116M256 215H396M256 215L355 314M256 215V355M256 215L157 314M256 215H116M256 215L157 116"
          fill="none" stroke="#a77cff" stroke-opacity=".46" stroke-width="10"/>
    <circle cx="256" cy="215" r="140" fill="none" stroke="url(#wheel)" stroke-width="25"/>
  </g>

  <g filter="url(#glow)">
    <rect x="232" y="54" width="48" height="34" rx="10" fill="#ff4656"/>
    <rect x="341" y="94" width="48" height="34" rx="10" fill="#a77cff"/>
    <rect x="386" y="198" width="48" height="34" rx="10" fill="#2dd4d2"/>
    <rect x="341" y="302" width="48" height="34" rx="10" fill="#ff4656"/>
    <rect x="232" y="342" width="48" height="34" rx="10" fill="#a77cff"/>
    <rect x="123" y="302" width="48" height="34" rx="10" fill="#2dd4d2"/>
    <rect x="78" y="198" width="48" height="34" rx="10" fill="#ff4656"/>
    <rect x="123" y="94" width="48" height="34" rx="10" fill="#a77cff"/>
  </g>

  <circle cx="256" cy="215" r="38" fill="#0c0e14" stroke="#f4f1f7" stroke-width="15"/>
  <circle cx="256" cy="215" r="17" fill="#ff4656"/>
  <circle cx="256" cy="215" r="7" fill="#fff"/>
</svg>
